<svg viewBox="0 0 342.3 344">  
  <path d="M328,104.8c-3.6-.5-7.4-.4-11.1-.4-10,0-19.9,0-30.8,0,1.2-1.4,2-2.2,2.8-3,14-14,28-28,42-42,6.2-6.2,10.4-13.4,11-22.3.9-13.8-4.8-24.5-16.4-31.6-14.5-8.9-28.4-6.7-40.4,5.5-29.5,30.1-59,60.1-88.4,90.2-2.3,2.3-4.5,3.4-7.8,3.4-56.4-.1-112.9,0-169.3,0-6.6,0-12.5,1.7-16.4,7.3-3.5,5-4.3,10.6-1.6,16.2,2.9,5.9,7.4,9.9,14.2,10.5,4.8.4,9.6.2,14.4.2,1.2,0,2.4,0,4,0-1.5,8.2-2.8,16-4.5,23.7-6.1,27.6-5.9,55,3.7,81.7,18.9,52.4,55.5,85.1,110.1,97.2,6,1.3,12.1,1.9,18.2,2.7h18.8c6.8-1.1,13.7-1.8,20.5-3.2,38.2-8.3,68.3-28.9,90.2-61.1,19.5-28.6,27.8-60.4,24.7-94.8-1.2-13.4-4.4-26.7-6.7-40-.3-2-.7-3.9-1.1-6.2,5.7,0,11.1,0,16.4,0,7.8-.1,13.1-4.3,16.3-11,4.5-9.5-2.2-21.2-12.9-22.7Z"/>
  <path d="M68.3,70.1c18.7,0,34.1-15.1,34.3-33.7.2-19-15.1-34.5-34.1-34.6-18.7-.1-34.3,15.4-34.4,34,0,18.6,15.4,34.2,34.1,34.3Z"/>
  <path d="M154,35.9c9.4,0,17.1-7.6,17.1-17,0-9.4-7.6-17-17.1-17-9.4,0-17.1,7.6-17.1,17,0,9.3,7.7,17,17.1,17.1Z"/>
  <path d="M188.2,70.1c9.4,0,17.1-7.5,17.2-16.9,0-9.3-7.6-17.1-17-17.1-9.4,0-17.1,7.5-17.2,16.9,0,9.4,7.5,17.1,17,17.1Z"/>
</svg>